<svg width="38" height="30" viewBox="0 0 38 30" fill="none" xmlns="http://www.w3.org/2000/svg">
<path d="M36 14.707L36.7071 13.9999L37.4142 14.707L36.7071 15.4141L36 14.707ZM1 15.707C0.447715 15.707 0 15.2593 0 14.707C0 14.1547 0.447715 13.707 1 13.707V14.707V15.707ZM22 0.707031L22.7071 -7.55312e-05L36.7071 13.9999L36 14.707L35.2929 15.4141L21.2929 1.41414L22 0.707031ZM36 14.707L36.7071 15.4141L22.7071 29.4141L22 28.707L21.2929 27.9999L35.2929 13.9999L36 14.707ZM36 14.707V15.707H1V14.707V13.707H36V14.707Z" fill="#121212"/>
</svg>
